<svg width="600" height="400" viewBox="0 0 600 400" xmlns="http://www.w3.org/2000/svg">
  <!-- Arkaplan -->
  <rect width="600" height="400" rx="20" fill="#F0F9FF"/>
  
  <!-- To-do List Kartı -->
  <rect x="100" y="50" width="400" height="300" rx="15" fill="#FFFFFF" stroke="#E2E8F0" stroke-width="2"/>
  
  <!-- Başlık -->
  <rect x="130" y="80" width="200" height="25" rx="5" fill="#EBF5FF"/>
  <rect x="130" y="120" width="340" height="3" rx="1.5" fill="#E2E8F0"/>
  
  <!-- Görev 1 - Tamamlanmış -->
  <rect x="130" y="140" width="340" height="40" rx="5" fill="#F8FAFC"/>
  <circle cx="150" cy="160" r="12" fill="#4ADE80"/>
  <path d="M145 160L148 163L155 156" stroke="white" stroke-width="2" stroke-linecap="round" stroke-linejoin="round"/>
  <rect x="170" y="153" width="180" height="14" rx="2" fill="#94A3B8" fill-opacity="0.3"/>
  
  <!-- Görev 2 - Devam Eden -->
  <rect x="130" y="190" width="340" height="40" rx="5" fill="#F8FAFC"/>
  <circle cx="150" cy="210" r="12" fill="#FFFFFF" stroke="#3B82F6" stroke-width="2"/>
  <rect x="170" y="203" width="220" height="14" rx="2" fill="#64748B"/>
  
  <!-- Görev 3 - Beklemede -->
  <rect x="130" y="240" width="340" height="40" rx="5" fill="#F8FAFC"/>
  <circle cx="150" cy="260" r="12" fill="#FFFFFF" stroke="#94A3B8" stroke-width="2"/>
  <rect x="170" y="253" width="150" height="14" rx="2" fill="#64748B"/>
  
  <!-- Tarih ve Zaman -->
  <circle cx="470" cy="80" r="15" fill="#EBF5FF"/>
  <path d="M470 73V87M463 80H477" stroke="#3B82F6" stroke-width="2" stroke-linecap="round"/>
  
  <!-- Soyut Şekiller -->
  <circle cx="50" cy="100" r="30" fill="#BFDBFE" fill-opacity="0.7"/>
  <rect x="30" y="280" width="40" height="40" rx="10" fill="#93C5FD" fill-opacity="0.7"/>
  <path d="M550 320L580 350L520 350Z" fill="#60A5FA" fill-opacity="0.7"/>
  <circle cx="530" cy="70" r="20" fill="#3B82F6" fill-opacity="0.2"/>
</svg> 